<?xml version="1.0" encoding="utf-8"?>
<!-- Generator: Adobe Illustrator 18.1.1, SVG Export Plug-In . SVG Version: 6.00 Build 0)  -->
<svg version="1.1" id="Layer_1" xmlns="http://www.w3.org/2000/svg" xmlns:xlink="http://www.w3.org/1999/xlink" x="0px" y="0px"
	 viewBox="0 0 342 80" style="enable-background:new 0 0 342 80;" xml:space="preserve">
<style type="text/css">
	.st0{fill:#1FB686;}
</style>
<path class="st0" d="M64.1,68.5c0-0.1-0.1-0.2-0.1-0.3l0,0l-1.2-1.7l0,0c-0.1-0.1-0.2-0.3-0.2-0.5c0,0,0,0,0-0.1l0,0l1.6-18.4
	l7.6-7.6l1,1.1l0,0c-1.9,2.2-3.3,5-3.8,8l-1.7,16.4v0c0,0.1,0,0.2,0,0.2c0,0,0,0,0,0.1l0,0.1l0.4,5.2l0,0c0,0.5,0.4,1,0.9,1.1l0,0
	l1.7,0.5l0,0c0.1,0,0.2,0.1,0.2,0.1l0,0l1.4,1.3l0,0c0.1,0.1,0.2,0.3,0.2,0.5c0,0.4-0.3,0.7-0.7,0.7c0,0,0,0,0,0l0,0l-4.3-0.2l0,0
	c-0.2,0-0.3-0.1-0.4-0.1l0,0l0,0c0,0,0,0,0,0l-1.4-0.9l0,0c-0.2-0.1-0.4-0.3-0.4-0.6l0,0L64.1,68.5L64.1,68.5z"/>
<path class="st0" d="M32.6,38.7L31.3,40l-0.7-0.5L21.5,52l-3.7,5.1l0,0c-0.2,0.2-0.3,0.5-0.3,0.8c0,0-0.7,10.9-0.7,10.9
	c0,0.1,0.8,1,0.9,1.1l1.1,2.1l0,0c0.1,0.2,0.4,0.4,0.6,0.4l0,0l2.8,0.3c0.4,0,1-0.3,1-0.6c0-0.5-0.6-1.4-1.2-1.9l-1.4-0.9l0,0
	c-0.3-0.2-0.5-0.5-0.5-0.9c0,0,0-0.1,0-0.1l0.6-5.3l0,0c0.3-2.1,1-4.1,2.2-5.8c0.6-0.9,1.3-1.6,2.1-2.3c4.1-3.4,6.9-8.4,7.5-14
	l0-0.1h0C32.5,40.4,32.6,39.4,32.6,38.7z"/>
<path class="st0" d="M97.9,3.2c0-0.1,0-0.1,0-0.2c0,0,0-0.1,0-0.1c0,0,0-0.1,0-0.1c-0.2-0.6-0.8-1.1-1.5-1.1c-0.1,0-0.3,0-0.4,0
	l-3.5,0.9c-0.4,0.1-0.8,0.2-1.3,0.2c-1.4,0-2.7-0.6-3.6-1.6v0c-0.2-0.2-0.4-0.5-0.6-0.6c0,0,0,0,0,0c-0.1-0.1-0.1-0.1-0.2-0.1
	c0,0,0,0,0,0c-0.1,0-0.1-0.1-0.2-0.1c0,0,0,0,0,0c-0.1,0-0.1-0.1-0.2-0.1c0,0,0,0-0.1,0c-0.1,0-0.1,0-0.2-0.1c0,0,0,0-0.1,0
	c-0.1,0-0.1,0-0.2,0c0,0,0,0-0.1,0c-0.1,0-0.2,0-0.3,0c-0.2,0-0.5,0-0.7,0.1l0,0L80,1.2l-2.2,0.5l0,0c-0.7,0.2-1.3,0.6-1.7,1.2l0,0
	l-5.5,8.2l0,0l-0.9,1.3l0,0c-2.3,3.5-6.3,5.8-10.8,5.8c-1.3,0-2.6,0.1-3.8,0.4l0,0l-0.1,0c0,0,0,0,0,0l-17.7,3.6l-9.7,2l0,0
	c-1.7,0.3-3.3,1-4.7,1.9c0,0,0,0,0,0c-2.9,1.6-6.3,2.5-9.8,2.5c-4.6,0-8.9-1.6-12.4-4.1l0,0c-0.1-0.1-0.2-0.1-0.3-0.1
	c-0.3,0-0.5,0.2-0.5,0.5c0,0.2,0.1,0.3,0.2,0.4l0,0c3.8,3.9,9,6.4,14.9,6.4c0.4,0,0.7,0,1.1,0c0.5,2,0.7,4,0.7,6.1
	c0,6.6-2.4,12.7-6.3,17.3c0,0,0,0,0,0l0,0l0,0c-1.4,1.6-3,3.1-4.7,4.4c0,0,0,0,0,0l0,0l0,0c-0.2,0.2-0.4,0.5-0.4,0.8l0,0L3.5,73.9
	l0,0c0,0,0,0.1,0,0.1c0,0.1,0,0.3,0.1,0.4l0,0l1.1,2l0,0c0.1,0.2,0.3,0.3,0.5,0.4l2,0.5c0,0,0.3,0.1,0.5,0.1c0.2,0,0.4,0,0.5-0.1
	l1.8-0.6l0,0c0.2-0.1,0.4-0.3,0.4-0.5c0-0.1,0-0.2,0-0.2l-0.8-2c0,0,0,0,0,0l0,0l0,0c-0.2-0.5-0.7-0.8-1.2-0.9l0,0
	c0-0.5-0.1-1-0.1-1.5c0-7.5,4.3-14,10.5-17.3l0,0c3.1-1.6,5.5-3.8,6.9-6.8c0,0,0,0,0,0c2.1-4.5,6.7-7.6,12-7.6
	c2.7,0,5.3,0.8,7.4,2.3c3,2.3,6.7,3.8,10.7,4.1l0,0c0,0,0,0,0,0c0,0,0,0,0.1,0c0.8,0,1.5,0.7,1.5,1.6l0,0.1L56,69.8l0,0
	c0,0,0,0.1,0,0.1c0,0.8,0.6,1.4,1.3,1.6c0.4,0.2,0.8,0.6,0.9,1.1l0,0l1.2,5.8v0c0,0.7,0.7,1.3,1.5,1.4l0,0l2.3,0.2l0,0c0,0,0,0,0,0
	c0.1,0,0.1,0,0.2,0h0l3.3-0.8l0,0c0.2-0.1,0.5-0.2,0.5-0.5c0-0.7-1.8-2-1.8-2c-0.1-0.1-0.3-0.2-0.5-0.3l0,0l-1.2-0.3l0,0
	c-0.6-0.2-1.1-0.7-1.2-1.3l0,0l-1-4.5l0,0c0-0.1,0-0.2,0-0.2c0,0,0-0.1,0-0.1l0,0l2.3-18.5l0,0c0.1-0.5,0.3-1,0.6-1.3l0,0l10.2-11.1
	l-0.1,0c1.3-1.4,2.3-3.2,2.9-5.2v0l0,0l0-0.1c0,0,0,0,0,0.1L80.5,21c0,0,0,0,0,0c1.2-4.7,5.2-8.2,10.1-8.9l0,0v0
	C94.7,11.3,97.8,7.6,97.9,3.2C97.9,3.3,97.9,3.3,97.9,3.2C97.9,3.3,97.9,3.3,97.9,3.2z M86.6,4.9c-0.5,0-1-0.4-1-1c0-0.5,0.4-1,1-1
	c0.5,0,1,0.4,1,1C87.6,4.5,87.2,4.9,86.6,4.9z"/>
<g>
	<path class="st0" d="M130.7,51.9c-2.9,0-4.8-0.9-7.5-2.8V60h-5.3V28h5.3v2.3c1.8-2.1,4.5-3.3,7.8-3.3c6.9,0,11.7,5.2,11.7,12.4
		C142.7,46.5,137.6,51.9,130.7,51.9z M130.2,32.2c-4,0-7,3.1-7,7.2c0,4.2,3,7.3,7,7.3c3.8,0,6.7-3.1,6.7-7.2
		C137,35.3,134.1,32.2,130.2,32.2z"/>
	<path class="st0" d="M165,52v-3.8c-1.8,2.6-4.5,3.6-7.9,3.6c-7,0-12-5.2-12-12.4c0-7.3,5-12.5,12.1-12.5c3.4,0,6,1.1,7.8,3.7V28
		h5.3v24H165z M157.9,32.2c-4.1,0-7,3.1-7,7.4c0,4.2,2.9,7,7,7c4.3,0,6.9-3.1,6.9-7C164.9,35.2,162,32.2,157.9,32.2z"/>
	<path class="st0" d="M180.1,38.1V52h-5.3V28h5.3v1.8c0.9-2.2,2.4-2.7,4.8-2.7h0.5v5.3C181.9,32.5,180.1,34.4,180.1,38.1z"/>
	<path class="st0" d="M202.1,52l-7.8-11.8V52h-6.2V20h6.2v18.7l7.3-10.7h6.8l-8.5,11.7l9.9,12.3H202.1z"/>
	<path class="st0" d="M228.1,52V39.1c0-5-0.9-7-4.3-7c-3.3,0-4.6,1.8-4.6,7V52H213V20h6.2v9.1c1.8-1.5,3.5-2.2,5.9-2.2
		c5.7,0,9.2,3.1,9.2,10.9V52H228.1z"/>
	<path class="st0" d="M250.5,51.9c-7,0-12.6-5.6-12.6-12.4c0-6.8,5.7-12.4,12.6-12.4c7.2,0,12.7,5.5,12.7,12.6
		C263.2,46.3,257.5,51.9,250.5,51.9z M250.5,32.2c-3.7,0-6.9,3.2-6.9,7.1c0,4.1,3,7.3,6.9,7.3c3.8,0,6.9-3.2,6.9-7.2
		C257.5,35.5,254.4,32.2,250.5,32.2z"/>
	<path class="st0" d="M282.4,52v-3c-1.8,2.1-4,2.8-6.9,2.8c-5.5,0-9.1-3.2-9.1-11.6V28h5.3v11.1c0,6.3,2,7.5,4.7,7.5
		c1.9,0,3.4-0.8,4.2-2.2c0.6-1.1,0.8-2.5,0.8-5.7V28h6.2v24H282.4z"/>
	<path class="st0" d="M307.3,52V39.7c0-6.4-1.6-7.5-4.4-7.5c-1.8,0-3.4,0.8-4.3,2.2c-0.7,1.2-1.1,2.5-1.1,5.7V52h-5.3V28h5.3v1.8
		c1.8-2,4-2.8,6.7-2.8c3.3,0,6,1.2,7.5,3.4c1.3,1.8,1.8,3.9,1.8,8.2V52H307.3z"/>
	<path class="st0" d="M336.6,52v-3.8c-1.8,2.6-4.6,3.6-7.8,3.6c-6.7,0-11.9-5.5-11.9-12.5c0-7.1,5.4-12.7,12.1-12.7
		c3,0,5.9,1.1,7.6,3V20h5.3v32H336.6z M329.6,31.9c-3.9,0-7,3.2-7,7.2c0,4.2,3.1,7.5,7.1,7.5c3.9,0,6.9-3.2,6.9-7.3
		C336.7,35.1,333.6,31.9,329.6,31.9z"/>
</g>
</svg>
